<svg width="500" height="500" viewBox="0 0 500 500" fill="none" xmlns="http://www.w3.org/2000/svg">
<g clip-path="url(#clip0_2_109)">
<path d="M173.846 370.615L173.846 213.231L234.769 182.769L295.692 152.308M173.846 370.615H51.9999M173.846 370.615H295.692M295.692 152.308V91.3846L341.385 76.1538M295.692 152.308L356.615 153.078L371.846 106.615" stroke="black" stroke-width="30.4615"/>
<path d="M173.846 335.077H143.385H204.308" stroke="black" stroke-width="30.4615"/>
<path d="M133.231 340.154L92.6153 340.154M92.6153 340.154L255.077 340.154M92.6153 340.154L51.9999 340.154L295.692 340.154" stroke="black" stroke-width="30.4615"/>
<path d="M112.923 309.692L234.769 309.692" stroke="black" stroke-width="30.4615"/>
<rect x="356.615" y="30.4614" width="30.4615" height="30.4615" fill="black"/>
<rect x="417.538" y="60.9231" width="30.4615" height="30.4615" fill="black"/>
<rect x="417.538" width="30.4615" height="30.4615" fill="black"/>
<path d="M68.5802 481C65.211 481 62.263 480.333 59.7361 479C57.2093 477.666 55.2439 475.771 53.8401 473.314C52.4363 470.857 51.7344 467.98 51.7344 464.681V412.774H32.2563V404.141H61.2101V464.681C61.2101 467.067 61.877 468.962 63.2106 470.366C64.5442 471.7 66.3341 472.367 68.5802 472.367H87.0054V481H68.5802ZM123.815 481.842C119.182 481.842 115.181 480.965 111.812 479.21C108.443 477.455 105.811 474.928 103.915 471.629C102.09 468.26 101.178 464.295 101.178 459.732V444.36C101.178 439.728 102.09 435.762 103.915 432.463C105.811 429.164 108.443 426.637 111.812 424.882C115.181 423.127 119.182 422.25 123.815 422.25C128.447 422.25 132.448 423.127 135.817 424.882C139.186 426.637 141.783 429.164 143.608 432.463C145.504 435.762 146.451 439.693 146.451 444.255V459.732C146.451 464.295 145.504 468.26 143.608 471.629C141.783 474.928 139.186 477.455 135.817 479.21C132.448 480.965 128.447 481.842 123.815 481.842ZM123.815 473.419C127.956 473.419 131.185 472.261 133.501 469.945C135.817 467.629 136.975 464.224 136.975 459.732V444.36C136.975 439.868 135.817 436.464 133.501 434.147C131.185 431.831 127.956 430.673 123.815 430.673C119.743 430.673 116.515 431.831 114.128 434.147C111.812 436.464 110.654 439.868 110.654 444.36V459.732C110.654 464.224 111.812 467.629 114.128 469.945C116.515 472.261 119.743 473.419 123.815 473.419ZM187.366 482.053C182.734 482.053 178.663 481.175 175.153 479.421C171.714 477.666 169.047 475.139 167.151 471.84C165.256 468.471 164.309 464.505 164.309 459.943V444.15C164.309 439.517 165.256 435.551 167.151 432.252C169.047 428.953 171.714 426.426 175.153 424.672C178.663 422.917 182.734 422.04 187.366 422.04C194.035 422.04 199.404 423.829 203.475 427.409C207.546 430.989 209.687 435.867 209.898 442.044H200.422C200.211 438.324 198.948 435.481 196.632 433.516C194.386 431.48 191.297 430.462 187.366 430.462C183.225 430.462 179.926 431.656 177.47 434.042C175.013 436.359 173.784 439.693 173.784 444.044V459.943C173.784 464.295 175.013 467.664 177.47 470.05C179.926 472.437 183.225 473.63 187.366 473.63C191.297 473.63 194.386 472.612 196.632 470.577C198.948 468.541 200.211 465.698 200.422 462.048H209.898C209.687 468.225 207.546 473.104 203.475 476.683C199.404 480.263 194.035 482.053 187.366 482.053ZM257.973 481C254.603 481 251.655 480.333 249.129 479C246.602 477.666 244.636 475.771 243.232 473.314C241.829 470.857 241.127 467.98 241.127 464.681V412.774H221.649V404.141H250.603V464.681C250.603 467.067 251.269 468.962 252.603 470.366C253.937 471.7 255.727 472.367 257.973 472.367H276.398V481H257.973ZM313.207 482.053C308.645 482.053 304.644 481.14 301.204 479.315C297.835 477.49 295.203 474.928 293.308 471.629C291.483 468.26 290.57 464.365 290.57 459.943V444.15C290.57 439.657 291.483 435.762 293.308 432.463C295.203 429.164 297.835 426.602 301.204 424.777C304.644 422.952 308.645 422.04 313.207 422.04C317.769 422.04 321.735 422.952 325.104 424.777C328.544 426.602 331.176 429.164 333.001 432.463C334.896 435.762 335.844 439.657 335.844 444.15V454.363H299.836V459.943C299.836 464.505 300.994 468.015 303.31 470.471C305.626 472.858 308.925 474.051 313.207 474.051C316.857 474.051 319.805 473.419 322.051 472.156C324.297 470.822 325.666 468.857 326.157 466.26H335.633C335.001 471.103 332.615 474.964 328.473 477.841C324.402 480.649 319.314 482.053 313.207 482.053ZM326.578 448.045V444.15C326.578 439.587 325.42 436.078 323.104 433.621C320.858 431.164 317.559 429.936 313.207 429.936C308.925 429.936 305.626 431.164 303.31 433.621C300.994 436.078 299.836 439.587 299.836 444.15V447.203H327.315L326.578 448.045ZM371.284 482.053C365.177 482.053 360.369 480.509 356.86 477.42C353.35 474.262 351.595 470.015 351.595 464.681C351.595 459.276 353.35 455.029 356.86 451.941C360.369 448.853 365.107 447.308 371.073 447.308H388.972V441.518C388.972 437.938 387.884 435.2 385.708 433.305C383.603 431.34 380.584 430.357 376.654 430.357C373.214 430.357 370.336 431.094 368.02 432.568C365.704 433.972 364.37 435.902 364.019 438.359H354.543C355.175 433.375 357.527 429.41 361.598 426.462C365.669 423.514 370.758 422.04 376.864 422.04C383.532 422.04 388.797 423.759 392.657 427.199C396.518 430.638 398.448 435.306 398.448 441.202V481H389.183V469.945H387.603L389.183 468.366C389.183 472.577 387.533 475.911 384.234 478.368C381.005 480.825 376.689 482.053 371.284 482.053ZM373.6 474.578C378.093 474.578 381.778 473.454 384.655 471.208C387.533 468.962 388.972 466.084 388.972 462.575V454.363H371.284C368.125 454.363 365.634 455.24 363.809 456.995C361.984 458.749 361.071 461.136 361.071 464.154C361.071 467.383 362.159 469.945 364.335 471.84C366.581 473.665 369.67 474.578 373.6 474.578ZM417.569 481V423.092H427.045V434.147H429.045L427.045 436.358C427.045 431.796 428.413 428.287 431.151 425.83C433.888 423.303 437.679 422.04 442.522 422.04C448.348 422.04 452.98 423.829 456.42 427.409C459.859 430.989 461.579 435.867 461.579 442.044V481H452.103V443.097C452.103 438.956 450.98 435.797 448.734 433.621C446.558 431.375 443.575 430.252 439.784 430.252C435.854 430.252 432.73 431.445 430.414 433.832C428.168 436.218 427.045 439.657 427.045 444.15V481H417.569Z" fill="black"/>
</g>
<defs>
<clipPath id="clip0_2_109">
<rect width="500" height="500" fill="white"/>
</clipPath>
</defs>
</svg>
